<svg width="48" height="48" viewBox="0 0 48 48" fill="none" xmlns="http://www.w3.org/2000/svg">
<rect width="48" height="48" rx="12" fill="#1C1C1C"/>
<mask id="mask0_2093_392" style="mask-type:luminance" maskUnits="userSpaceOnUse" x="8" y="8" width="32" height="32">
<path d="M40 8H8V40H40V8Z" fill="white"/>
</mask>
<g mask="url(#mask0_2093_392)">
<path d="M13.665 8.57031H34.335C37.4636 8.57031 40 11.1067 40 14.2354V33.7624C40 36.8911 37.4636 39.4274 34.335 39.4274H13.665C10.5364 39.4274 8 36.8912 8 33.7624V14.2354C8 11.1067 10.5364 8.57031 13.665 8.57031Z" fill="#49021F"/>
<path d="M21.0475 16.7489V29.9989C21.0475 30.14 20.9841 30.2106 20.8572 30.2104L18.4776 30.2499C18.3644 30.2499 18.3086 30.1796 18.3086 30.0384V16.7884C18.3086 16.6757 18.3716 16.6191 18.4989 16.6191L20.8785 16.5796C20.9602 16.568 21.036 16.6249 21.0476 16.7067C21.0495 16.7207 21.0495 16.7349 21.0475 16.7489Z" fill="#FF3366"/>
<path d="M30.8589 27.8138V29.9915C30.8624 30.0698 30.8215 30.1433 30.7532 30.1818C30.4414 30.3176 30.1101 30.4033 29.7716 30.4356C29.3486 30.4779 28.9398 30.499 28.5453 30.499C27.7449 30.5118 26.9491 30.3755 26.1985 30.0973C25.5373 29.8491 24.9383 29.4595 24.4435 28.9555C23.9612 28.4578 23.5837 27.8682 23.3336 27.2219C23.0693 26.5412 22.9366 25.8166 22.9424 25.0864C22.9231 24.0885 23.1792 23.1046 23.6823 22.2427C24.183 21.4113 24.9037 20.7344 25.765 20.2871C26.7355 19.7901 27.8147 19.5429 28.9048 19.5682C29.3219 19.5605 29.739 19.5853 30.1523 19.6422C30.35 19.6772 30.544 19.7303 30.7321 19.8007C30.8075 19.8529 30.8481 19.9422 30.8378 20.0333L30.8169 22.2626C30.8169 22.3894 30.7603 22.4391 30.6476 22.4106C30.4632 22.3252 30.2682 22.2647 30.0678 22.2309C29.7179 22.1776 29.3644 22.1529 29.0106 22.1568C28.476 22.1322 27.9424 22.2228 27.4459 22.4225C26.9931 22.6234 26.6103 22.9546 26.3466 23.3738C26.0621 23.8601 25.9227 24.4177 25.9447 24.9807C25.9106 25.595 26.0777 26.2037 26.4208 26.7145C26.724 27.1272 27.1435 27.44 27.6255 27.613C28.0961 27.7865 28.5935 27.8759 29.0951 27.8773C29.4341 27.8788 29.7729 27.8612 30.1099 27.8244C30.3086 27.8056 30.5037 27.7593 30.6897 27.687C30.8023 27.6589 30.8588 27.7012 30.8589 27.8138Z" fill="#FF3366"/>
</g>
</svg>
