<svg width="48" height="48" viewBox="0 0 48 48" fill="none" xmlns="http://www.w3.org/2000/svg">
<rect width="48" height="48" rx="12" fill="#1C1C1C"/>
<mask id="mask0_2093_370" style="mask-type:luminance" maskUnits="userSpaceOnUse" x="8" y="8" width="32" height="32">
<path d="M40 8H8V40H40V8Z" fill="white"/>
</mask>
<g mask="url(#mask0_2093_370)">
<path d="M13.6667 8.39844H34.3334C37.4667 8.39844 40 10.9317 40 14.0651V33.9318C40 37.0651 37.4667 39.5985 34.3333 39.5985H13.6667C10.5333 39.5984 8 37.0651 8 33.9318V14.0651C8 10.9317 10.5333 8.39844 13.6667 8.39844Z" fill="#001834"/>
<path d="M15.1992 30.2787V16.5587C15.1992 16.4654 15.2392 16.412 15.3325 16.412C15.5592 16.412 15.7725 16.412 16.0792 16.3987C16.3992 16.3854 16.7325 16.3854 17.0925 16.372C17.4525 16.3587 17.8392 16.3587 18.2525 16.3453C18.6658 16.332 19.0658 16.332 19.4658 16.332C20.5592 16.332 21.4658 16.4653 22.2125 16.7453C22.8792 16.972 23.4925 17.3453 23.9992 17.8387C24.4259 18.2653 24.7592 18.7853 24.9725 19.3587C25.1725 19.9187 25.2792 20.492 25.2792 21.092C25.2792 22.2387 25.0125 23.1853 24.4792 23.932C23.9459 24.6787 23.1992 25.2387 22.3325 25.5587C21.4258 25.892 20.4258 26.012 19.3325 26.012C19.0125 26.012 18.7992 26.012 18.6658 25.9987C18.5325 25.9853 18.3458 25.9853 18.0925 25.9853V30.2653C18.1058 30.3587 18.0392 30.4387 17.9458 30.452C17.9325 30.452 17.9192 30.452 17.8925 30.452H15.3592C15.2525 30.452 15.1992 30.3987 15.1992 30.2787ZM18.1059 18.9854V23.4654C18.2926 23.4787 18.4659 23.4921 18.6259 23.4921H19.3326C20.2533 23.4921 21.3166 23.2757 21.9592 22.5455C22.5123 21.917 22.5138 20.6706 22.0659 19.9855C21.5342 19.1722 20.4708 18.9365 19.5592 18.9588C19.2125 18.9588 18.9059 18.9588 18.6525 18.9721C18.3859 18.9587 18.1992 18.972 18.1059 18.9854Z" fill="#00A9FF"/>
<path d="M33.5981 22.6539C33.1981 22.4406 32.7714 22.2939 32.3181 22.2006C31.8248 22.0939 31.3314 22.0273 30.8248 22.0273C30.5581 22.014 30.2781 22.054 30.0248 22.1206C29.8515 22.1606 29.7048 22.2539 29.6115 22.3873C29.5448 22.494 29.5048 22.6273 29.5048 22.7473C29.5048 22.8673 29.5581 22.9873 29.6381 23.094C29.7581 23.2407 29.9181 23.3607 30.0914 23.454C30.3981 23.614 30.7181 23.7607 31.0381 23.894C31.7581 24.134 32.4514 24.4673 33.0914 24.8673C33.5314 25.1473 33.8914 25.5206 34.1448 25.974C34.3581 26.4007 34.4648 26.8673 34.4514 27.3473C34.4648 27.974 34.2781 28.6006 33.9314 29.1206C33.5581 29.6539 33.0381 30.0673 32.4381 30.3073C31.7848 30.5873 30.9848 30.734 30.0248 30.734C29.4115 30.734 28.8115 30.6807 28.2115 30.5607C27.7448 30.4807 27.2782 30.334 26.8515 30.134C26.7582 30.0807 26.6915 29.9873 26.7048 29.8807V27.5607C26.7048 27.5207 26.7181 27.4674 26.7581 27.4407C26.7981 27.414 26.8381 27.4274 26.8781 27.454C27.3981 27.7607 27.9448 27.974 28.5314 28.1073C29.0381 28.2406 29.5714 28.3073 30.1048 28.3073C30.6114 28.3073 30.9714 28.2406 31.2114 28.1206C31.4248 28.0273 31.5714 27.8006 31.5714 27.5606C31.5714 27.3739 31.4648 27.2006 31.2514 27.0273C31.0381 26.854 30.5981 26.654 29.9448 26.4006C29.2648 26.1606 28.6381 25.8406 28.0514 25.4406C27.6381 25.1473 27.2914 24.7606 27.0381 24.3073C26.8248 23.8806 26.7181 23.414 26.7314 22.9473C26.7314 22.374 26.8914 21.8273 27.1848 21.334C27.5181 20.8007 28.0114 20.374 28.5848 20.1073C29.2114 19.7873 29.9981 19.6406 30.9448 19.6406C31.4914 19.6406 32.0514 19.6806 32.5981 19.7606C32.9981 19.8139 33.3848 19.9206 33.7448 20.0673C33.7981 20.0806 33.8514 20.134 33.8781 20.1873C33.8914 20.2406 33.9048 20.294 33.9048 20.3473V22.5206C33.9048 22.5739 33.8781 22.6273 33.8381 22.6539C33.7181 22.6806 33.6514 22.6806 33.5981 22.6539Z" fill="#00A9FF"/>
</g>
</svg>
