<svg width="48" height="48" viewBox="0 0 48 48" fill="none" xmlns="http://www.w3.org/2000/svg">
<rect width="48" height="48" rx="12" fill="#1C1C1C"/>
<mask id="mask0_2093_319" style="mask-type:luminance" maskUnits="userSpaceOnUse" x="8" y="8" width="32" height="32">
<path d="M40 8H8V40H40V8Z" fill="white"/>
</mask>
<g mask="url(#mask0_2093_319)">
<path d="M24.0371 23.9993C24.0371 21.0538 26.4249 18.666 29.3704 18.666C32.3159 18.666 34.7037 21.0539 34.7037 23.9993C34.7037 26.9449 32.3159 29.3326 29.3704 29.3326C26.4249 29.3326 24.0371 26.9448 24.0371 23.9993Z" fill="#00BCFF"/>
<path d="M13.3711 34.6659C13.3711 31.7204 15.7589 29.3326 18.7044 29.3326L21.5466 27.832L24.0377 29.3326V34.6659C24.0377 37.6114 21.6499 39.9992 18.7044 39.9992C15.7589 39.9992 13.3711 37.6114 13.3711 34.6659Z" fill="#00CF7F"/>
<path d="M24.0389 8L21.1367 13.0419L24.0389 18.6666H29.2974C32.2429 18.6666 34.6307 16.2788 34.6307 13.3333C34.6307 10.3878 32.2429 8 29.2974 8H24.0389Z" fill="#FF7361"/>
<path d="M13.2969 13.3333C13.2969 16.2788 15.6847 18.6666 18.6302 18.6666L21.4594 19.7594L24.0383 18.6666V8H18.6301C15.6847 8 13.2969 10.3878 13.2969 13.3333Z" fill="#FF4D12"/>
<path d="M13.3711 23.9994C13.3711 26.9449 15.7589 29.3327 18.7044 29.3327H24.0377V18.666H18.7044C15.7589 18.666 13.3711 21.0539 13.3711 23.9994Z" fill="#B659FF"/>
</g>
</svg>
