<svg width="48" height="48" viewBox="0 0 48 48" fill="none" xmlns="http://www.w3.org/2000/svg">
<rect width="48" height="48" rx="12" fill="#1C1C1C"/>
<path d="M33.4551 9.93945H14.546C11.7344 9.93945 9.45508 12.2187 9.45508 15.0304V32.9698C9.45508 35.7814 11.7344 38.0607 14.546 38.0607H33.4551C36.2667 38.0607 38.546 35.7814 38.546 32.9698V15.0304C38.546 12.2187 36.2667 9.93945 33.4551 9.93945Z" fill="#49021F"/>
<path d="M20.1231 17.9413V30.6079C20.1231 30.7291 20.0685 30.7898 19.9606 30.7898H17.8612C17.7521 30.7898 17.6988 30.7291 17.6988 30.6079V17.9413C17.6955 17.9192 17.6975 17.8967 17.7045 17.8754C17.7115 17.8543 17.7234 17.835 17.7392 17.8192C17.7549 17.8035 17.7742 17.7915 17.7954 17.7846C17.8166 17.7776 17.8391 17.7756 17.8612 17.7788H19.9812C20.0757 17.7788 20.1231 17.8334 20.1231 17.9413Z" fill="#FF3366"/>
<path d="M26.4045 31.0319C24.9972 31.0319 23.9148 30.6331 23.0736 29.8368C22.2324 29.0404 21.8105 27.8635 21.8105 26.3047C21.8105 24.8881 22.2626 23.7245 23.1669 22.8138C23.6299 22.3352 24.1864 21.957 24.8017 21.7027C25.417 21.4482 26.0781 21.3231 26.7439 21.335C27.0416 21.3296 27.3388 21.3614 27.6287 21.4295V17.3277C27.6265 17.3123 27.628 17.2967 27.6328 17.2819C27.6377 17.2672 27.6459 17.2538 27.6568 17.2427C27.6677 17.2317 27.681 17.2233 27.6957 17.2183C27.7104 17.2133 27.7261 17.2117 27.7414 17.2138H29.9584C30.0215 17.2138 30.053 17.2513 30.053 17.3277V28.8125C30.053 29.2973 30.2626 29.7107 30.2954 30.0647C30.3021 30.0997 30.2963 30.1359 30.279 30.1672C30.2617 30.1984 30.2341 30.2226 30.2008 30.2355C29.1124 30.7664 27.6857 31.0319 26.4045 31.0319ZM27.6287 29.1543V23.2913C27.5499 23.1532 27.1329 23.0319 26.7063 23.0319C26.353 23.0228 26.0022 23.0926 25.6793 23.2363C25.3562 23.38 25.0695 23.5938 24.8396 23.8622C24.2806 24.517 23.979 25.3529 23.9911 26.2137C23.9911 27.2755 24.3547 28.0028 24.8299 28.5083C25.0543 28.7658 25.3307 28.9726 25.641 29.1151C25.9513 29.2577 26.2884 29.3326 26.6299 29.335C27.0833 29.335 27.5257 29.2671 27.6287 29.1543Z" fill="#FF3366"/>
</svg>
