<svg width="48" height="48" viewBox="0 0 48 48" fill="none" xmlns="http://www.w3.org/2000/svg">
<rect width="48" height="48" rx="12" fill="#1C1C1C"/>
<path d="M33.75 9.5H14.25C11.3505 9.5 9 11.8505 9 14.75V33.25C9 36.1495 11.3505 38.5 14.25 38.5H33.75C36.6495 38.5 39 36.1495 39 33.25V14.75C39 11.8505 36.6495 9.5 33.75 9.5Z" fill="#470137"/>
<path d="M24.4215 17.7057L20.7315 24.0457L24.7077 30.7957C24.789 30.9332 24.754 31.0007 24.6052 31.0007H22.1252C22.0638 31.0072 22.0019 30.9951 21.9475 30.9659C21.8931 30.9367 21.8487 30.8917 21.8202 30.837L19.0215 25.7032H19.0002L16.2752 30.837C16.2502 30.8858 16.2122 30.9269 16.1655 30.9558C16.1188 30.9846 16.0651 31.0002 16.0102 31.0007H13.6252C13.489 31.0007 13.4627 30.9332 13.544 30.7957L17.454 24.2307L13.729 17.6645C13.6477 17.5557 13.6752 17.5007 13.8102 17.5007H16.2952C16.3485 17.4969 16.4018 17.5084 16.4487 17.5339C16.4957 17.5593 16.5344 17.5977 16.5602 17.6445L19.1852 22.717H19.2052L21.8165 17.6445C21.8422 17.5979 21.8807 17.5597 21.9274 17.5342C21.9741 17.5088 22.0271 17.4971 22.0802 17.5007H24.3402C24.4902 17.5007 24.5165 17.5695 24.4215 17.7057Z" fill="#FF61F6"/>
<path d="M30.4837 31.2489C29.0337 31.2489 27.9175 30.8377 27.0513 30.0164C26.185 29.1952 25.75 27.9814 25.75 26.3739C25.75 24.9131 26.2158 23.7131 27.1475 22.7739C27.6242 22.2805 28.1974 21.8905 28.8314 21.6281C29.4653 21.3657 30.1465 21.2367 30.8325 21.2489C31.1395 21.2434 31.4461 21.2762 31.745 21.3464V17.1164C31.7427 17.1006 31.7442 17.0844 31.7492 17.0692C31.7542 17.054 31.7627 17.0402 31.774 17.0288C31.7852 17.0175 31.799 17.0088 31.8141 17.0036C31.8292 16.9985 31.8454 16.9968 31.8612 16.9989H34.1462C34.21 16.9989 34.2425 17.0377 34.2425 17.1164V28.9602C34.2425 29.4602 34.4588 29.8864 34.4925 30.2514C34.4994 30.2876 34.4934 30.325 34.4756 30.3572C34.4578 30.3894 34.4293 30.4143 34.395 30.4277C33.2738 30.9752 31.8037 31.2489 30.4837 31.2489ZM31.75 29.3127V23.2664C31.6687 23.1239 31.2387 22.9989 30.7987 22.9989C30.4346 22.9895 30.0729 23.0614 29.7401 23.2096C29.4073 23.3577 29.1117 23.5783 28.875 23.8552C28.2985 24.5304 27.9874 25.3924 28 26.2802C28 27.3752 28.375 28.1252 28.8638 28.6464C29.0948 28.9113 29.3793 29.1243 29.6986 29.2712C30.0179 29.4182 30.3648 29.4958 30.7162 29.4989C31.1825 29.4989 31.6388 29.4289 31.75 29.3127Z" fill="#FF61F6"/>
</svg>
