<svg width="48" height="48" viewBox="0 0 48 48" fill="none" xmlns="http://www.w3.org/2000/svg">
<rect width="48" height="48" rx="12" fill="#1C1C1C"/>
<path d="M33.75 9.5H14.25C11.3505 9.5 9 11.8505 9 14.75V33.25C9 36.1495 11.3505 38.5 14.25 38.5H33.75C36.6495 38.5 39 36.1495 39 33.25V14.75C39 11.8505 36.6495 9.5 33.75 9.5Z" fill="#001E36"/>
<path d="M25.8737 21H27.9987C28.0499 20.9983 28.1002 21.0137 28.1417 21.0438C28.1831 21.0739 28.2133 21.117 28.2275 21.1662C28.3867 21.5067 28.4788 21.8747 28.4987 22.25C29.3012 21.2125 30.2887 20.75 31.6037 20.75C31.6236 20.7465 31.644 20.7478 31.6632 20.7538C31.6824 20.7598 31.6998 20.7704 31.7141 20.7847C31.7283 20.7989 31.7389 20.8164 31.7449 20.8356C31.751 20.8548 31.7523 20.8752 31.7487 20.895V23.1025C31.7487 23.2137 31.6937 23.2612 31.5825 23.2475C30.3787 23.1787 29.4237 23.3362 28.7325 24.0275C28.6629 24.0858 28.6062 24.1578 28.566 24.2392C28.5257 24.3205 28.5029 24.4093 28.4987 24.5V30.855C28.4987 30.9512 28.4437 31 28.3325 31H26.185C26.06 31 25.9987 30.945 25.9987 30.8337V23.75C25.9987 22.0725 25.8737 21.8337 25.7487 21.145C25.735 21.0487 25.7762 21 25.8737 21Z" fill="#31A8FF"/>
<path d="M24.1909 30.9998H16.4409C16.3159 30.9998 16.2496 30.9285 16.2496 30.7873V17.6698C16.2462 17.6466 16.2483 17.6229 16.2557 17.6006C16.2632 17.5783 16.2757 17.5581 16.2924 17.5416C16.309 17.5251 16.3293 17.5127 16.3517 17.5054C16.374 17.4981 16.3977 17.4962 16.4209 17.4998H18.6259C18.7109 17.4998 18.7509 17.5498 18.7509 17.6486V28.9998H24.5947C24.7197 28.9998 24.7709 29.0573 24.7434 29.1698L24.4034 30.8298C24.3957 30.8796 24.3696 30.9247 24.3302 30.9562C24.2909 30.9876 24.2412 31.0032 24.1909 30.9998Z" fill="#31A8FF"/>
</svg>
