<svg width="48" height="48" viewBox="0 0 48 48" fill="none" xmlns="http://www.w3.org/2000/svg">
<rect width="48" height="48" rx="12" fill="white"/>
<path d="M33.75 9.5H14.25C11.3505 9.5 9 11.8505 9 14.75V33.25C9 36.1495 11.3505 38.5 14.25 38.5H33.75C36.6495 38.5 39 36.1495 39 33.25V14.75C39 11.8505 36.6495 9.5 33.75 9.5Z" fill="#330000"/>
<path d="M24.0986 27.499H19.6248L18.4698 30.834C18.4565 30.944 18.3869 30.999 18.2611 30.999H16.1611C16.0211 30.999 15.9723 30.9303 16.0148 30.7928L20.0673 18.7565C20.1818 18.39 20.2383 18.0079 20.2348 17.624C20.2326 17.6071 20.2343 17.5898 20.2397 17.5736C20.2452 17.5574 20.2544 17.5427 20.2665 17.5306C20.2785 17.5185 20.2933 17.5094 20.3095 17.5039C20.3257 17.4984 20.3429 17.4968 20.3598 17.499H23.2998C23.3848 17.499 23.4336 17.534 23.4473 17.6015L27.9823 30.814C28.0248 30.939 27.9898 30.999 27.8773 30.999H25.5261C25.4826 31.0016 25.4393 30.9911 25.4019 30.9688C25.3644 30.9465 25.3345 30.9135 25.3161 30.874L24.0986 27.499ZM20.1248 25.249H23.6098C23.5261 25.0653 21.9586 20.0078 21.8461 19.5815H21.8261L20.1248 25.249Z" fill="#FF9A00"/>
<path d="M30.4888 20C30.2916 20.0084 30.0949 19.9773 29.91 19.9083C29.7251 19.8394 29.556 19.7342 29.4125 19.5988C29.2721 19.456 29.1629 19.2856 29.0919 19.0984C29.0209 18.9112 28.9896 18.7112 29 18.5113C28.9907 18.3087 29.0236 18.1065 29.0965 17.9174C29.1694 17.7282 29.2809 17.5563 29.4238 17.4125C29.5684 17.2748 29.7391 17.1674 29.9259 17.0966C30.1126 17.0257 30.3116 16.9929 30.5113 17C30.7112 16.9896 30.9112 17.0209 31.0984 17.0919C31.2856 17.1629 31.456 17.2721 31.5988 17.4125C31.7354 17.5597 31.8413 17.7327 31.9102 17.9214C31.9791 18.1101 32.0096 18.3106 32 18.5113C32.0104 18.7112 31.9791 18.9112 31.9081 19.0984C31.8371 19.2856 31.7279 19.456 31.5875 19.5988C31.4403 19.7354 31.2673 19.8413 31.0786 19.9102C30.8899 19.9791 30.6894 20.0096 30.4888 20Z" fill="#FF9A00"/>
<path d="M29.2496 30.8121V21.1671C29.2463 21.1443 29.2483 21.1211 29.2555 21.0992C29.2627 21.0774 29.275 21.0575 29.2912 21.0412C29.3075 21.025 29.3274 21.0127 29.3493 21.0055C29.3711 20.9983 29.3944 20.9963 29.4171 20.9996H31.5821C31.6049 20.9965 31.628 20.9987 31.6497 21.006C31.6715 21.0134 31.6912 21.0256 31.7074 21.0418C31.7237 21.058 31.7359 21.0778 31.7432 21.0995C31.7505 21.1213 31.7527 21.1444 31.7496 21.1671V30.8321C31.753 30.8549 31.751 30.8781 31.7438 30.9C31.7365 30.9219 31.7243 30.9417 31.708 30.958C31.6917 30.9743 31.6719 30.9865 31.65 30.9938C31.6282 31.001 31.6049 31.003 31.5821 30.9996H29.4371C29.4117 31.0032 29.3858 31.0007 29.3614 30.9926C29.3371 30.9844 29.3149 30.9707 29.2968 30.9525C29.2786 30.9343 29.2649 30.9122 29.2567 30.8878C29.2485 30.8635 29.2461 30.8376 29.2496 30.8121Z" fill="#FF9A00"/>
</svg>
